{
  "accessors": [
    {
      "bufferView": 0,
      "byteOffset": 0,
      "componentType": 5125,
      "count": 36,
      "max": [
        7
      ],
      "min": [
        0
      ],
      "type": "SCALAR"
    },
    {
      "bufferView": 1,
      "byteOffset": 0,
      "componentType": 5126,
      "count": 8,
      "max": [
        50.0,
        50.0,
        50.0
      ],
      "min": [
        -50.0,
        -50.0,
        -50.0
      ],
      "type": "VEC3"
    }
  ],
  "asset": {
    "copyright": "Open data",
    "generator": "Generated using CityJSON2glTF python utility",
    "version": "2.0"
  },
  "bufferViews": [
    {
      "buffer": 0,
      "byteLength": 144,
      "byteOffset": 0,
      "target": 34963
    },
    {
      "buffer": 0,
      "byteLength": 96,
      "byteOffset": 144,
      "target": 34962
    }
  ],
  "buffers": [
    {
      "byteLength": 240,
      "uri": "cube_bin.bin"
    }
  ],
  "materials": [
    {
      "pbrMetallicRoughness": {
        "baseColorFactor": [
          1.0,
          0.0,
          0.0,
          1.0
        ],
        "metallicFactor": 0.5,
        "roughnessFactor": 1.0
      }
    },
    {
      "pbrMetallicRoughness": {
        "baseColorFactor": [
          0.588,
          0.403,
          0.211,
          1.0
        ],
        "metallicFactor": 0.5,
        "roughnessFactor": 1.0
      }
    },
    {
      "pbrMetallicRoughness": {
        "baseColorFactor": [
          0.631,
          0.607,
          0.592,
          1.0
        ],
        "metallicFactor": 0.5,
        "roughnessFactor": 1.0
      }
    },
    {
      "pbrMetallicRoughness": {
        "baseColorFactor": [
          0.07,
          0.949,
          0.972,
          1.0
        ],
        "metallicFactor": 0.5,
        "roughnessFactor": 1.0
      }
    },
    {
      "pbrMetallicRoughness": {
        "baseColorFactor": [
          0.0,
          1.0,
          0.0,
          1.0
        ],
        "metallicFactor": 0.5,
        "roughnessFactor": 1.0
      }
    },
    {
      "pbrMetallicRoughness": {
        "baseColorFactor": [
          0.909,
          0.945,
          0.196,
          1.0
        ],
        "metallicFactor": 0.5,
        "roughnessFactor": 1.0
      }
    },
    {
      "pbrMetallicRoughness": {
        "baseColorFactor": [
          0.894,
          0.494,
          0.145,
          1.0
        ],
        "metallicFactor": 0.5,
        "roughnessFactor": 1.0
      }
    },
    {
      "pbrMetallicRoughness": {
        "baseColorFactor": [
          0.466,
          0.094,
          0.905,
          1.0
        ],
        "metallicFactor": 0.5,
        "roughnessFactor": 1.0
      }
    },
    {
      "pbrMetallicRoughness": {
        "baseColorFactor": [
          0.011,
          0.011,
          0.007,
          1.0
        ],
        "metallicFactor": 0.5,
        "roughnessFactor": 1.0
      }
    },
    {
      "pbrMetallicRoughness": {
        "baseColorFactor": [
          0.909,
          0.188,
          0.827,
          1.0
        ],
        "metallicFactor": 0.5,
        "roughnessFactor": 1.0
      }
    }
  ],
  "meshes": [
    {
      "name": "onebuilding",
      "primitives": [
        {
          "attributes": {
            "POSITION": 1
          },
          "indices": 0,
          "material": 0
        }
      ]
    }
  ],
  "nodes": [
    {
      "mesh": 0,
      "name": "onebuilding"
    }
  ],
  "scenes": [
    {
      "nodes": [
        0
      ]
    }
  ]
}